<svg xmlns="http://www.w3.org/2000/svg" width="24" height="24" viewBox="0 0 24 24">
  <g id="그룹_2849" data-name="그룹 2849" transform="translate(-20 -962)">
    <rect id="사각형_1164" data-name="사각형 1164" width="24" height="24" transform="translate(20 962)" fill="none"/>
    <g id="그룹_2848" data-name="그룹 2848" transform="translate(21.747 963.677)">
      <rect id="사각형_1458" data-name="사각형 1458" width="19" height="19" transform="translate(0.253 0.323)" fill="none"/>
      <path id="패스_1-3" data-name="패스 1-3" d="M953.919-235.86v-8.921h3.021l.432-3.481h-3.453v-2.176c0-.979.324-1.74,1.726-1.74h1.834v-3.155c-.431,0-1.51-.109-2.7-.109a4.177,4.177,0,0,0-4.431,3.913,4.392,4.392,0,0,0,.009.656v2.612h-3.021v3.481h3.021v8.921Z" transform="translate(-942.484 255.452)" fill="#666" fill-rule="evenodd"/>
      <rect id="사각형_1165" data-name="사각형 1165" width="19" height="19" transform="translate(0.253 0.323)" fill="none"/>
    </g>
  </g>
</svg>
