<svg xmlns="http://www.w3.org/2000/svg" width="48" height="48" viewBox="0 0 48 48">
  <g id="그룹_4712" data-name="그룹 4712" transform="translate(-2124 15893)">
    <path id="사각형_2205" data-name="사각형 2205" d="M24,0h0A24,24,0,0,1,48,24v0A24,24,0,0,1,24,48h0A24,24,0,0,1,0,24v0A24,24,0,0,1,24,0Z" transform="translate(2124 -15893)" fill="#00c63b"/>
    <g id="그룹_4709" data-name="그룹 4709" transform="translate(0 2)">
      <path id="패스_2580" data-name="패스 2580" d="M102.715,82.856l0-.007-2.871-2.671a3.387,3.387,0,0,0-2.5-1.108H78.225a3.437,3.437,0,0,0-3.418,3.449v21.294a2.31,2.31,0,0,0,.327,1.347,1.2,1.2,0,0,0,.27.278l2.746,2.554a1.19,1.19,0,0,0,.137.127l.025.023,0,0a1.1,1.1,0,0,0,.137.095,1.163,1.163,0,0,0,.54.128A1.962,1.962,0,0,0,80.03,108l3.208-3.315c.681-.83,2.513-1.015,3.161-1.017h13.855a3.438,3.438,0,0,0,3.417-3.45v-15a3.413,3.413,0,0,0-.956-2.367m-3.085.067V97.516a2.291,2.291,0,0,1-2.278,2.3H83.5c-.293,0-2.9.04-4.008,1.4l-.641.665-1.139,1.181-1.272,1.319a.834.834,0,0,1-.349.126l-.014,0s-.128-.125-.128-.7V82.518a2.291,2.291,0,0,1,2.278-2.3H97.352a2.333,2.333,0,0,1,2.278,2.3Z" transform="translate(2059.228 -15963.362)" fill="#fff"/>
      <path id="패스_2581" data-name="패스 2581" d="M119.864,132.306a1.71,1.71,0,0,0-1.7,1.718v3.609a1.7,1.7,0,1,0,3.4,0v-3.609a1.71,1.71,0,0,0-1.7-1.718" transform="translate(2021.689 -16009.391)" fill="#fff"/>
      <path id="패스_2582" data-name="패스 2582" d="M198.914,132.306a1.71,1.71,0,0,0-1.7,1.718v3.609a1.7,1.7,0,1,0,3.4,0v-3.609a1.71,1.71,0,0,0-1.7-1.718" transform="translate(1953.244 -16009.391)" fill="#fff"/>
      <rect id="사각형_2206" data-name="사각형 2206" width="48" height="48" transform="translate(2124 -15895)" fill="none"/>
    </g>
  </g>
</svg>
