<svg xmlns="http://www.w3.org/2000/svg" width="48" height="48" viewBox="0 0 48 48">
  <g id="그룹_4713" data-name="그룹 4713" transform="translate(-1831.642 -1827.338)">
    <g id="그룹_3554" data-name="그룹 3554" transform="translate(1525 1214.887)" style="isolation: isolate">
      <g id="그룹_3549" data-name="그룹 3549" transform="translate(306.642 612.451)">
        <circle id="타원_59" data-name="타원 59" cx="24" cy="24" r="24" transform="translate(0)" fill="#ffdc00"/>
        <path id="패스_2575" data-name="패스 2575" d="M15,0C6.716,0,0,5.3,0,11.827c0,4.223,2.808,7.928,7.031,10.021-.23.792-1.476,5.1-1.526,5.436,0,0-.03.254.135.351A.452.452,0,0,0,6,27.656c.472-.066,5.473-3.578,6.338-4.188A19,19,0,0,0,15,23.654c8.284,0,15-5.295,15-11.827S23.284,0,15,0" transform="translate(9 10.158)" fill="#3c1e1e"/>
      </g>
      <g id="그룹_3550" data-name="그룹 3550" transform="translate(319.462 630.603)">
        <path id="패스_2576" data-name="패스 2576" d="M28.315,65.162a.847.847,0,0,1-.865-.826V59.195H26.1a.847.847,0,1,1,0-1.695h4.431a.847.847,0,1,1,0,1.695H29.18v5.141a.847.847,0,0,1-.865.826" transform="translate(-25.25 -57.5)" fill="#ffdc00"/>
        <path id="패스_2577" data-name="패스 2577" d="M64.65,65.152a.71.71,0,0,1-.72-.382L63.5,63.648H60.863l-.429,1.122a.709.709,0,0,1-.72.382,1.32,1.32,0,0,1-.55-.119c-.239-.11-.468-.413-.205-1.229l2.07-5.448a1.206,1.206,0,0,1,2.307,0L65.4,63.8c.263.818.034,1.121-.2,1.231a1.323,1.323,0,0,1-.55.119h0m-1.6-3.037-.864-2.456-.864,2.456Z" transform="translate(-53.997 -57.501)" fill="#ffdc00"/>
        <path id="패스_2578" data-name="패스 2578" d="M109.079,65.036a.813.813,0,0,1-.829-.793V58.365a.884.884,0,0,1,1.767,0V63.45h1.839a.794.794,0,1,1,0,1.587Z" transform="translate(-96.279 -57.5)" fill="#ffdc00"/>
        <path id="패스_2579" data-name="패스 2579" d="M142.2,65.151a.866.866,0,0,1-.865-.865v-5.92a.865.865,0,1,1,1.731,0v1.86l2.414-2.414a.672.672,0,0,1,.48-.193.876.876,0,0,1,.85.8.674.674,0,0,1-.191.527l-1.972,1.972,2.13,2.822a.865.865,0,0,1-1.381,1.043L143.365,62.1l-.3.3v1.888a.867.867,0,0,1-.866.866" transform="translate(-124.591 -57.5)" fill="#ffdc00"/>
      </g>
    </g>
  </g>
</svg>
