<svg xmlns="http://www.w3.org/2000/svg" width="24" height="24" viewBox="0 0 24 24">
  <g id="그룹_2847" data-name="그룹 2847" transform="translate(-44 -962)">
    <rect id="사각형_1163" data-name="사각형 1163" width="24" height="24" transform="translate(44 962)" fill="none"/>
    <g id="Instagram-2" transform="translate(47.169 964.668)">
      <path id="패스_3-2" data-name="패스 3-2" d="M992.154-253.876a27.112,27.112,0,0,1,3.525.1,4.547,4.547,0,0,1,1.665.294,3.44,3.44,0,0,1,1.664,1.665,4.548,4.548,0,0,1,.294,1.665c0,.881.1,1.175.1,3.525a27.085,27.085,0,0,1-.1,3.525,4.543,4.543,0,0,1-.294,1.665,3.435,3.435,0,0,1-1.664,1.665,4.526,4.526,0,0,1-1.665.294c-.881,0-1.175.1-3.525.1a26.9,26.9,0,0,1-3.525-.1,4.519,4.519,0,0,1-1.665-.294,3.434,3.434,0,0,1-1.665-1.665,4.547,4.547,0,0,1-.294-1.665c0-.881-.1-1.175-.1-3.525a27.1,27.1,0,0,1,.1-3.525,4.552,4.552,0,0,1,.294-1.665,3.524,3.524,0,0,1,.685-.979,1.649,1.649,0,0,1,.979-.685,4.541,4.541,0,0,1,1.665-.294,27.1,27.1,0,0,1,3.525-.1m0-1.567a29.024,29.024,0,0,0-3.623.1,6.067,6.067,0,0,0-2.154.391,3.831,3.831,0,0,0-1.567.979,3.837,3.837,0,0,0-.98,1.568,4.461,4.461,0,0,0-.391,2.154,29.047,29.047,0,0,0-.1,3.623,29.041,29.041,0,0,0,.1,3.623,6.032,6.032,0,0,0,.392,2.155,3.823,3.823,0,0,0,.979,1.567,3.832,3.832,0,0,0,1.567.979,6.027,6.027,0,0,0,2.155.392,28.818,28.818,0,0,0,3.622.1,28.839,28.839,0,0,0,3.623-.1,6.025,6.025,0,0,0,2.155-.392,4.108,4.108,0,0,0,2.546-2.546,6.05,6.05,0,0,0,.392-2.155c0-.978.1-1.272.1-3.622a29.058,29.058,0,0,0-.1-3.623,6.055,6.055,0,0,0-.392-2.155,3.838,3.838,0,0,0-.979-1.567,3.838,3.838,0,0,0-1.567-.979,6.067,6.067,0,0,0-2.154-.391,29.031,29.031,0,0,0-3.623-.1m0,4.309a4.432,4.432,0,0,0-4.5,4.358c0,.048,0,.1,0,.147a4.5,4.5,0,0,0,4.5,4.5,4.5,4.5,0,0,0,4.5-4.5,4.5,4.5,0,0,0-4.5-4.5h0m0,7.443a2.886,2.886,0,0,1-2.938-2.831c0-.035,0-.071,0-.107a2.885,2.885,0,0,1,2.831-2.938h.107a2.885,2.885,0,0,1,2.938,2.831v.107a2.886,2.886,0,0,1-2.831,2.938c-.036,0-.072,0-.107,0m4.7-8.715a1.077,1.077,0,0,0-1.077,1.077,1.077,1.077,0,0,0,1.077,1.077,1.078,1.078,0,0,0,1.077-1.077h0a1.087,1.087,0,0,0-1.077-1.077" transform="translate(-983.322 255.461)" fill="#666" stroke="#666" stroke-width="0.2" fill-rule="evenodd"/>
    </g>
  </g>
</svg>
